# xmcd
#
# Track frame offsets: 
#        150
#        12323
#        27516
#        39603
#        51075
#        63747
#        73675
#        94410
#        108056
#        120251
#        133064
#        147704
#        161012
#
# Disc length: 2350 seconds
#
# Revision: 2
# Processed by: cddbd v1.5.2PL0 Copyright (c) Steve Scherf et al.
# Submitted via: ExactAudioCopy v0.99pb4
#
DISCID=be092c0d
DTITLE=Hungry John - So Fine
DYEAR=2003
DGENRE=Blues
TTITLE0=Goin' To Paris
TTITLE1=So Fine
TTITLE2=The Flu
TTITLE3=Who Took My Babe
TTITLE4=She Took Everything
TTITLE5=Get Rid Of Me
TTITLE6=Midnight Boogie
TTITLE7=Straitjacket
TTITLE8=Call It Off
TTITLE9=Ride This Train
TTITLE10=Lazy Shuffle
TTITLE11=What's Goin' On John
TTITLE12=Will You Stay
EXTD=YEAR: 2004
EXTT0=
EXTT1=
EXTT2=
EXTT3=
EXTT4=
EXTT5=
EXTT6=
EXTT7=
EXTT8=
EXTT9=
EXTT10=
EXTT11=
EXTT12=
PLAYORDER=
